<svg width="24" height="24" viewBox="0 0 24 24" fill="none" xmlns="http://www.w3.org/2000/svg">
<path fill-rule="evenodd" clip-rule="evenodd" d="M16.2526 0.756164C16.7369 0.271993 17.3937 0 18.0785 0C18.7634 0 19.4202 0.271993 19.9045 0.756164L23.2438 4.09553C23.728 4.57985 24 5.23664 24 5.92146C24 6.60629 23.728 7.26307 23.2438 7.74739L21.1958 9.79543L14.2046 2.8042L16.2526 0.756164ZM12.3786 4.63014L0.756716 16.2521C0.272342 16.7363 0.000146274 17.3931 0 18.078V21.4174C0 22.1023 0.2721 22.7592 0.75644 23.2436C1.24078 23.7279 1.89769 24 2.58265 24H5.92201C6.60692 23.9999 7.26372 23.7277 7.74794 23.2433L19.3699 11.6214L12.3786 4.63014Z" fill="#05B97D"/>
</svg>
