<svg width="37" height="39" viewBox="0 0 37 39" fill="none" xmlns="http://www.w3.org/2000/svg">
<path d="M18.5 19.5C16.8042 19.5 15.3524 18.8635 14.1448 17.5906C12.9371 16.3177 12.3333 14.7875 12.3333 13C12.3333 11.2125 12.9371 9.68229 14.1448 8.40938C15.3524 7.13646 16.8042 6.5 18.5 6.5C20.1958 6.5 21.6476 7.13646 22.8552 8.40938C24.0628 9.68229 24.6667 11.2125 24.6667 13C24.6667 14.7875 24.0628 16.3177 22.8552 17.5906C21.6476 18.8635 20.1958 19.5 18.5 19.5ZM6.16666 32.5V27.95C6.16666 27.0292 6.39148 26.1828 6.84114 25.4109C7.29079 24.6391 7.88818 24.05 8.63332 23.6438C10.2264 22.8042 11.8451 22.1745 13.4896 21.7547C15.134 21.3349 16.8042 21.125 18.5 21.125C20.1958 21.125 21.866 21.3349 23.5104 21.7547C25.1549 22.1745 26.7736 22.8042 28.3667 23.6438C29.1118 24.05 29.7092 24.6391 30.1588 25.4109C30.6085 26.1828 30.8333 27.0292 30.8333 27.95V32.5H6.16666ZM9.24999 29.25H27.75V27.95C27.75 27.6521 27.6793 27.3813 27.538 27.1375C27.3967 26.8937 27.2104 26.7042 26.9792 26.5688C25.5917 25.8375 24.1913 25.2891 22.7781 24.9234C21.3649 24.5578 19.9389 24.375 18.5 24.375C17.0611 24.375 15.6351 24.5578 14.2219 24.9234C12.8087 25.2891 11.4083 25.8375 10.0208 26.5688C9.78957 26.7042 9.60329 26.8937 9.46197 27.1375C9.32065 27.3813 9.24999 27.6521 9.24999 27.95V29.25ZM18.5 16.25C19.3479 16.25 20.0738 15.9318 20.6776 15.2953C21.2814 14.6589 21.5833 13.8938 21.5833 13C21.5833 12.1062 21.2814 11.3411 20.6776 10.7047C20.0738 10.0682 19.3479 9.75 18.5 9.75C17.6521 9.75 16.9262 10.0682 16.3224 10.7047C15.7186 11.3411 15.4167 12.1062 15.4167 13C15.4167 13.8938 15.7186 14.6589 16.3224 15.2953C16.9262 15.9318 17.6521 16.25 18.5 16.25Z" fill="#05B97D"/>
</svg>
