<svg width="17" height="16" viewBox="0 0 17 16" fill="none" xmlns="http://www.w3.org/2000/svg">
<path d="M5.25 2H3.625C3.19402 2 2.7807 2.14048 2.47595 2.39052C2.1712 2.64057 2 2.97971 2 3.33333V12.6667C2 13.0203 2.1712 13.3594 2.47595 13.6095C2.7807 13.8595 3.19402 14 3.625 14H13.375C13.806 14 14.2193 13.8595 14.524 13.6095C14.8288 13.3594 15 13.0203 15 12.6667V3.33333C15 2.97971 14.8288 2.64057 14.524 2.39052C14.2193 2.14048 13.806 2 13.375 2H10.125M5.25 2V8L7.6875 6L10.125 8V2M5.25 2H10.125" stroke="#05B97D" stroke-width="2.66667" stroke-linecap="round" stroke-linejoin="round"/>
</svg>
